<?xml version="1.0" encoding="UTF-8" standalone="no"?>
<svg
   viewBox="0 0 800 800"
   version="1.1"
   id="svg15"
   sodipodi:docname="Facebook_Messenger_logo_2020.svg"
   inkscape:version="1.1.2 (b8e25be833, 2022-02-05)"
   xmlns:inkscape="http://www.inkscape.org/namespaces/inkscape"
   xmlns:sodipodi="http://sodipodi.sourceforge.net/DTD/sodipodi-0.dtd"
   xmlns:xlink="http://www.w3.org/1999/xlink"
   xmlns="http://www.w3.org/2000/svg"
   xmlns:svg="http://www.w3.org/2000/svg">
  <defs
     id="defs19">
    <linearGradient
       inkscape:collect="always"
       xlink:href="#a"
       id="linearGradient957"
       x1="309.98798"
       y1="917.44885"
       x2="483.27316"
       y2="-392.77979"
       gradientUnits="userSpaceOnUse" />
  </defs>
  <sodipodi:namedview
     id="namedview17"
     pagecolor="#ffffff"
     bordercolor="#666666"
     borderopacity="1.0"
     inkscape:pageshadow="2"
     inkscape:pageopacity="0.0"
     inkscape:pagecheckerboard="0"
     showgrid="false"
     inkscape:zoom="0.519375"
     inkscape:cx="307.09988"
     inkscape:cy="502.52708"
     inkscape:window-width="1920"
     inkscape:window-height="1017"
     inkscape:window-x="1912"
     inkscape:window-y="-8"
     inkscape:window-maximized="1"
     inkscape:current-layer="svg15" />
  <radialGradient
     id="a"
     cx="101.9"
     cy="809"
     r="1.1"
     gradientTransform="matrix(800 0 0 -800 -81386 648000)"
     gradientUnits="userSpaceOnUse">
    <stop
       offset="0"
       style="stop-color:#09f"
       id="stop2" />
    <stop
       offset="0.06573138"
       style="stop-color:#fb4831;stop-opacity:1"
       id="stop4" />
    <stop
       offset="0.70669699"
       style="stop-color:#fe6007;stop-opacity:1"
       id="stop6" />
    <stop
       offset="1"
       style="stop-color:#ff7061"
       id="stop8" />
  </radialGradient>
  <path
     fill="url(#a)"
     d="M400 0C174.7 0 0 165.1 0 388c0 116.6 47.8 217.4 125.6 287 6.5 5.8 10.5 14 10.7 22.8l2.2 71.2a32 32 0 0 0 44.9 28.3l79.4-35c6.7-3 14.3-3.5 21.4-1.6 36.5 10 75.3 15.4 115.8 15.4 225.3 0 400-165.1 400-388S625.3 0 400 0z"
     id="path11"
     style="fill-opacity:1;fill:url(#linearGradient957)" />
  <path
     fill="#FFF"
     d="m159.8 501.5 117.5-186.4a60 60 0 0 1 86.8-16l93.5 70.1a24 24 0 0 0 28.9-.1l126.2-95.8c16.8-12.8 38.8 7.4 27.6 25.3L522.7 484.9a60 60 0 0 1-86.8 16l-93.5-70.1a24 24 0 0 0-28.9.1l-126.2 95.8c-16.8 12.8-38.8-7.3-27.5-25.2z"
     id="path13" />
</svg>
