<?xml version="1.0" encoding="UTF-8" standalone="no"?>
<!-- Generator: Adobe Illustrator 18.1.1, SVG Export Plug-In . SVG Version: 6.00 Build 0)  -->

<svg
   version="1.1"
   id="Capa_1"
   x="0px"
   y="0px"
   viewBox="0 0 61.858 61.858"
   style="enable-background:new 0 0 61.858 61.858;"
   xml:space="preserve"
   sodipodi:docname="gym.svg"
   inkscape:version="1.1.2 (b8e25be833, 2022-02-05)"
   xmlns:inkscape="http://www.inkscape.org/namespaces/inkscape"
   xmlns:sodipodi="http://sodipodi.sourceforge.net/DTD/sodipodi-0.dtd"
   xmlns:xlink="http://www.w3.org/1999/xlink"
   xmlns="http://www.w3.org/2000/svg"
   xmlns:svg="http://www.w3.org/2000/svg"><defs
   id="defs43"><linearGradient
     inkscape:collect="always"
     id="linearGradient260"><stop
       style="stop-color:#fb4831;stop-opacity:1"
       offset="0"
       id="stop256" /><stop
       style="stop-color:#fe6007;stop-opacity:1"
       offset="1"
       id="stop258" /></linearGradient><linearGradient
     inkscape:collect="always"
     xlink:href="#linearGradient260"
     id="linearGradient262"
     x1="24.862301"
     y1="61.336937"
     x2="28.807516"
     y2="1.1910084"
     gradientUnits="userSpaceOnUse" /></defs><sodipodi:namedview
   id="namedview41"
   pagecolor="#ffffff"
   bordercolor="#666666"
   borderopacity="1.0"
   inkscape:pageshadow="2"
   inkscape:pageopacity="0.0"
   inkscape:pagecheckerboard="0"
   showgrid="false"
   inkscape:zoom="13.433994"
   inkscape:cx="16.264709"
   inkscape:cy="30.891782"
   inkscape:window-width="1920"
   inkscape:window-height="1017"
   inkscape:window-x="1912"
   inkscape:window-y="-8"
   inkscape:window-maximized="1"
   inkscape:current-layer="Capa_1" />
<g
   id="g8"
   style="fill-opacity:1;fill:url(#linearGradient262)">
	<g
   id="g6"
   style="fill-opacity:1.0;fill:url(#linearGradient262)">
		<path
   style="fill:url(#linearGradient262);fill-opacity:1.0"
   d="M50.097,0.014c-9.917,0.874-17.235,5.824-21.501,12.98c-2.859,3.584-8.57,14.526-10.647,20.254    c-3.766,7.123-7.05,15.598-9.62,23.238c-1.571,4.672,5.483,7.72,7.063,3.027c1.922-5.716,4.244-11.896,6.868-17.631    c2.604,5.828,5.25,11.637,8.091,17.354c2.202,4.438,8.828,0.546,6.634-3.877c-2.925-5.885-5.642-11.864-8.319-17.863    c0.034-0.116,0.077-0.229,0.113-0.344c0.446,0.127,0.938,0.166,1.48,0.063c4.096-0.769,8.192-1.536,12.291-2.305    c1.751-0.329,2.422-2.245,2.146-3.779c-0.828-4.597-3.447-7.795-6.707-10.821c-0.484-1.646-2.098-3.102-3.889-4.549    c3.631-5.87,9.559-9.056,17.275-9.736C55.313,5.68,54.001-0.329,50.097,0.014z M35.173,26.143    c1.013,1.054,1.875,2.163,2.526,3.447c-1.982,0.372-3.965,0.743-5.947,1.115C32.752,29.095,33.903,27.575,35.173,26.143z"
   id="path2" />
		<circle
   style="fill:url(#linearGradient262);fill-opacity:1.0"
   cx="43.653"
   cy="15.635"
   r="5.275"
   id="circle4" />
	</g>
</g>
<g
   id="g10">
</g>
<g
   id="g12">
</g>
<g
   id="g14">
</g>
<g
   id="g16">
</g>
<g
   id="g18">
</g>
<g
   id="g20">
</g>
<g
   id="g22">
</g>
<g
   id="g24">
</g>
<g
   id="g26">
</g>
<g
   id="g28">
</g>
<g
   id="g30">
</g>
<g
   id="g32">
</g>
<g
   id="g34">
</g>
<g
   id="g36">
</g>
<g
   id="g38">
</g>
</svg>
