<?xml version="1.0" encoding="UTF-8" standalone="no"?>
<!-- Generator: Adobe Illustrator 19.0.0, SVG Export Plug-In . SVG Version: 6.00 Build 0)  -->

<svg
   version="1.1"
   id="Layer_1"
   x="0px"
   y="0px"
   viewBox="0 0 511.988 511.988"
   style="enable-background:new 0 0 511.988 511.988;"
   xml:space="preserve"
   sodipodi:docname="telephone-phone-svgrepo-com.svg"
   inkscape:version="1.1.2 (b8e25be833, 2022-02-05)"
   xmlns:inkscape="http://www.inkscape.org/namespaces/inkscape"
   xmlns:sodipodi="http://sodipodi.sourceforge.net/DTD/sodipodi-0.dtd"
   xmlns:xlink="http://www.w3.org/1999/xlink"
   xmlns="http://www.w3.org/2000/svg"
   xmlns:svg="http://www.w3.org/2000/svg"><defs
   id="defs41"><linearGradient
     inkscape:collect="always"
     id="linearGradient892"><stop
       style="stop-color:#fb4831;stop-opacity:1"
       offset="0"
       id="stop888" /><stop
       style="stop-color:#fe6007;stop-opacity:1"
       offset="1"
       id="stop890" /></linearGradient><linearGradient
     inkscape:collect="always"
     xlink:href="#linearGradient892"
     id="linearGradient894"
     x1="256.30206"
     y1="508.29132"
     x2="248.90874"
     y2="3.6966643"
     gradientUnits="userSpaceOnUse" /></defs><sodipodi:namedview
   id="namedview39"
   pagecolor="#ffffff"
   bordercolor="#666666"
   borderopacity="1.0"
   inkscape:pageshadow="2"
   inkscape:pageopacity="0.0"
   inkscape:pagecheckerboard="0"
   showgrid="false"
   inkscape:zoom="1.6230849"
   inkscape:cx="256.30206"
   inkscape:cy="255.994"
   inkscape:window-width="1271"
   inkscape:window-height="1040"
   inkscape:window-x="2174"
   inkscape:window-y="0"
   inkscape:window-maximized="0"
   inkscape:current-layer="Layer_1" />
<g
   id="g6"
   style="fill-opacity:1;fill:url(#linearGradient894)">
	<g
   id="g4"
   style="fill-opacity:1.0;fill:url(#linearGradient894)">
		<path
   d="M511.686,411.188c-0.96-14.827-8.107-28.48-19.84-37.547l-68.267-53.333c-18.773-14.72-45.12-14.613-63.68,0.213    l-15.253,12.053c-12.053,9.493-29.333,8.533-40.213-2.347L182.299,207.775c-10.88-10.88-11.84-28.267-2.347-40.32l12.053-15.253    c14.72-18.667,14.827-45.013,0.213-63.787l-53.227-68.48c-17.493-22.507-49.92-26.56-72.427-9.067    c-1.707,1.387-3.413,2.773-4.907,4.373L18.032,58.975c-18.667,18.773-64,95.573,137.707,297.707    c128.213,128.32,206.187,155.307,249.067,155.307c25.493,0,40.32-9.387,48.213-17.28l43.627-43.733    C507.099,440.415,512.539,426.015,511.686,411.188z M483.952,433.162c-0.747,0.96-1.6,1.92-2.453,2.667l-43.627,43.733    c-5.013,5.013-14.827,11.093-33.067,11.093c-31.787,0-104.427-19.307-233.92-149.12C21.552,191.882,3.312,103.882,33.179,73.908    l43.627-43.733c5.653-5.653,13.333-8.853,21.44-8.853c0.64,0,1.28,0,1.92,0.107c8.64,0.533,16.747,4.8,21.973,11.627l53.227,68.48    c8.64,11.093,8.533,26.56-0.107,37.547l-12.053,15.147c-16.213,20.587-14.507,50.027,4.053,68.587l122.133,122.453    c18.453,18.56,48,20.267,68.48,4.053l15.253-12.053c10.88-8.64,26.347-8.747,37.333-0.107l68.267,53.333    C491.952,400.842,494.299,419.935,483.952,433.162z"
   id="path2"
   style="fill-opacity:1.0;fill:url(#linearGradient894)" />
	</g>
</g>
<g
   id="g8">
</g>
<g
   id="g10">
</g>
<g
   id="g12">
</g>
<g
   id="g14">
</g>
<g
   id="g16">
</g>
<g
   id="g18">
</g>
<g
   id="g20">
</g>
<g
   id="g22">
</g>
<g
   id="g24">
</g>
<g
   id="g26">
</g>
<g
   id="g28">
</g>
<g
   id="g30">
</g>
<g
   id="g32">
</g>
<g
   id="g34">
</g>
<g
   id="g36">
</g>
</svg>
